# xmcd CD database file
#
# Track frame offsets:
#	150
#	12449
#	25328
#	50899
#
# Disc length: 909 seconds
#
# Revision: 0
# Processed by: cddbd v1.5.1PL0 Copyright (c) Steve Scherf et al.
# Submitted via: CDex 1.51
#
DISCID=30038b04
DTITLE=dip - underwater ディスクユニオン特典CD
DYEAR=2003
DGENRE=Rock
TTITLE0=dimples
TTITLE1=stockholm symdrome
TTITLE2=heart and soul
TTITLE3=cue
EXTD=YEAR: 2003.07/02
EXTT0=
EXTT1=
EXTT2=
EXTT3=
PLAYORDER=
